<svg xmlns="http://www.w3.org/2000/svg" viewBox="0 0 1200 630" width="1200" height="630">
  <rect width="1200" height="630" fill="#0d1117"/>
  <!-- US map grid accent -->
  <g transform="translate(520,80)" fill="none" stroke="#58a6ff" stroke-width="1" opacity="0.7">
    <rect x="0" y="0" width="20" height="15" rx="1"/><rect x="22" y="0" width="20" height="15" rx="1"/>
    <rect x="44" y="0" width="20" height="15" rx="1"/><rect x="66" y="0" width="20" height="15" rx="1"/>
    <rect x="88" y="0" width="20" height="15" rx="1"/><rect x="110" y="0" width="20" height="15" rx="1"/>
    <rect x="0" y="17" width="20" height="15" rx="1"/><rect x="22" y="17" width="20" height="15" rx="1"/>
    <rect x="44" y="17" width="20" height="15" rx="1"/><rect x="66" y="17" width="20" height="15" rx="1"/>
    <rect x="88" y="17" width="20" height="15" rx="1"/><rect x="110" y="17" width="20" height="15" rx="1"/>
    <rect x="0" y="34" width="20" height="15" rx="1"/><rect x="22" y="34" width="20" height="15" rx="1"/>
    <rect x="44" y="34" width="20" height="15" rx="1" fill="#58a6ff" opacity="0.3"/><rect x="66" y="34" width="20" height="15" rx="1"/>
    <rect x="88" y="34" width="20" height="15" rx="1"/><rect x="110" y="34" width="20" height="15" rx="1" fill="#58a6ff" opacity="0.3"/>
    <rect x="132" y="0" width="20" height="15" rx="1"/>
  </g>
  <text x="600" y="230" text-anchor="middle" font-family="'Segoe UI',Arial,sans-serif" font-size="44" font-weight="bold" fill="#e6edf3">Bankruptcy Exemptions</text>
  <text x="600" y="280" text-anchor="middle" font-family="'Segoe UI',Arial,sans-serif" font-size="44" font-weight="bold" fill="#e6edf3">by State</text>
  <text x="600" y="330" text-anchor="middle" font-family="'Segoe UI',Arial,sans-serif" font-size="26" fill="#58a6ff">Compare Federal and State Exemption Laws</text>
  <rect x="250" y="360" width="700" height="2" fill="#30363d"/>
  <text x="600" y="410" text-anchor="middle" font-family="'Segoe UI',Arial,sans-serif" font-size="20" fill="#7d8590">Homestead -- Vehicle -- Wildcard -- All 50 States</text>
  <text x="600" y="560" text-anchor="middle" font-family="'Segoe UI',Arial,sans-serif" font-size="16" fill="#484f58">Open Bankruptcy Project</text>
  <text x="600" y="585" text-anchor="middle" font-family="'Segoe UI',Arial,sans-serif" font-size="14" fill="#484f58">bankruptcyexemptionsbystate.com</text>
</svg>